<svg width="35" height="35" viewBox="0 0 35 35" fill="none" xmlns="http://www.w3.org/2000/svg">
<circle cx="17.5" cy="17.5" r="17.5" fill="#FF1640"/>
<path d="M18.3633 23H16.9219V12.1104C16.8105 12.2217 16.6465 12.3506 16.4297 12.4971C16.2188 12.6377 15.9785 12.7783 15.709 12.9189C15.4453 13.0596 15.1641 13.1914 14.8652 13.3145C14.5723 13.4375 14.2852 13.5342 14.0039 13.6045V12.1455C14.3203 12.0576 14.6543 11.9404 15.0059 11.7939C15.3633 11.6416 15.7119 11.4746 16.0518 11.293C16.3975 11.1055 16.7227 10.9121 17.0273 10.7129C17.332 10.5078 17.5957 10.3086 17.8184 10.1152H18.3633V23Z" fill="white"/>
<path d="M18.3633 23V24H19.3633V23H18.3633ZM16.9219 23H15.9219V24H16.9219V23ZM16.9219 12.1104H17.9219V9.69614L16.2148 11.4032L16.9219 12.1104ZM16.4297 12.4971L16.9844 13.3291L16.9895 13.3257L16.4297 12.4971ZM15.709 12.9189L15.2464 12.0323L15.2384 12.0366L15.709 12.9189ZM14.8652 13.3145L14.4845 12.3898L14.478 12.3925L14.8652 13.3145ZM14.0039 13.6045H13.0039V14.8853L14.2464 14.5746L14.0039 13.6045ZM14.0039 12.1455L13.7363 11.182L13.0039 11.3854V12.1455H14.0039ZM15.0059 11.7939L15.3905 12.7171L15.398 12.7139L15.0059 11.7939ZM16.0518 11.293L16.5231 12.1749L16.5285 12.172L16.0518 11.293ZM17.0273 10.7129L17.5746 11.5499L17.5857 11.5425L17.0273 10.7129ZM17.8184 10.1152V9.11523H17.4448L17.1627 9.3602L17.8184 10.1152ZM18.3633 10.1152H19.3633V9.11523H18.3633V10.1152ZM18.3633 22H16.9219V24H18.3633V22ZM17.9219 23V12.1104H15.9219V23H17.9219ZM16.2148 11.4032C16.1683 11.4497 16.0635 11.5376 15.8698 11.6685L16.9895 13.3257C17.2294 13.1636 17.4528 12.9937 17.629 12.8175L16.2148 11.4032ZM15.875 11.665C15.6989 11.7824 15.4903 11.9051 15.2464 12.0324L16.1716 13.8055C16.4667 13.6515 16.7386 13.493 16.9844 13.3291L15.875 11.665ZM15.2384 12.0366C15.0062 12.1604 14.7551 12.2783 14.4845 12.3898L15.246 14.2391C15.573 14.1045 15.8844 13.9587 16.1796 13.8013L15.2384 12.0366ZM14.478 12.3925C14.2275 12.4977 13.9888 12.5775 13.7614 12.6343L14.2464 14.5746C14.5815 14.4909 14.917 14.3773 15.2525 14.2364L14.478 12.3925ZM15.0039 13.6045V12.1455H13.0039V13.6045H15.0039ZM14.2716 13.109C14.6334 13.0085 15.0067 12.8769 15.3905 12.717L14.6212 10.8709C14.3019 11.0039 14.0072 11.1067 13.7363 11.182L14.2716 13.109ZM15.398 12.7139C15.7821 12.5501 16.1572 12.3705 16.5231 12.1749L15.5804 10.411C15.2666 10.5787 14.9444 10.7331 14.6138 10.874L15.398 12.7139ZM16.5285 12.172C16.8964 11.9725 17.2453 11.7652 17.5746 11.5499L16.4801 9.87592C16.2001 10.059 15.8985 10.2385 15.575 10.4139L16.5285 12.172ZM17.5857 11.5425C17.9165 11.3198 18.2141 11.096 18.474 10.8703L17.1627 9.3602C16.9773 9.52118 16.7476 9.69578 16.469 9.8833L17.5857 11.5425ZM17.8184 11.1152H18.3633V9.11523H17.8184V11.1152ZM17.3633 10.1152V23H19.3633V10.1152H17.3633Z" fill="white"/>
</svg>
