<svg width="235" height="1" viewBox="0 0 235 1" fill="none" xmlns="http://www.w3.org/2000/svg">
<line y1="0.5" x2="10" y2="0.5" stroke="white" stroke-opacity="0.75"/>
<line x1="120" y1="0.5" x2="130" y2="0.5" stroke="white" stroke-opacity="0.75"/>
<line x1="15" y1="0.5" x2="25" y2="0.5" stroke="white" stroke-opacity="0.75"/>
<line x1="135" y1="0.5" x2="145" y2="0.5" stroke="white" stroke-opacity="0.75"/>
<line x1="30" y1="0.5" x2="40" y2="0.5" stroke="white" stroke-opacity="0.75"/>
<line x1="150" y1="0.5" x2="160" y2="0.5" stroke="white" stroke-opacity="0.75"/>
<line x1="45" y1="0.5" x2="55" y2="0.5" stroke="white" stroke-opacity="0.75"/>
<line x1="165" y1="0.5" x2="175" y2="0.5" stroke="white" stroke-opacity="0.75"/>
<line x1="60" y1="0.5" x2="70" y2="0.5" stroke="white" stroke-opacity="0.75"/>
<line x1="180" y1="0.5" x2="190" y2="0.5" stroke="white" stroke-opacity="0.75"/>
<line x1="210" y1="0.5" x2="220" y2="0.5" stroke="white" stroke-opacity="0.75"/>
<line x1="75" y1="0.5" x2="85" y2="0.5" stroke="white" stroke-opacity="0.75"/>
<line x1="195" y1="0.5" x2="205" y2="0.5" stroke="white" stroke-opacity="0.75"/>
<line x1="225" y1="0.5" x2="235" y2="0.5" stroke="white" stroke-opacity="0.75"/>
<line x1="90" y1="0.5" x2="100" y2="0.5" stroke="white" stroke-opacity="0.75"/>
<line x1="105" y1="0.5" x2="115" y2="0.5" stroke="white" stroke-opacity="0.75"/>
</svg>
