<svg width="140" height="59" viewBox="0 0 140 59" fill="none" xmlns="http://www.w3.org/2000/svg">
<path d="M0 29.5C0 13.2076 13.2076 0 29.5 0H137.51C139.377 0 140.226 2.33066 138.796 3.53134L116.999 21.8433C112.242 25.8395 112.242 33.1605 116.999 37.1567L138.796 55.4687C140.226 56.6693 139.377 59 137.51 59H29.5C13.2076 59 0 45.7924 0 29.5Z" fill="white"/>
<path d="M18.8828 19.8125H26.4756L31.4561 37H25.5723L24.9131 33.7041H20.4697L19.7617 37H14.1221L18.8828 19.8125ZM24.3271 30.6279L22.6914 23.1084L21.0068 30.6279H24.3271Z" fill="white"/>
<path d="M33.1162 19.8125H38.5117V33.3135H44.4688V37H33.1162V19.8125Z" fill="white"/>
<path d="M46.5684 19.8125H52.7695C54.0553 19.8125 55.1987 19.9386 56.1997 20.1909C57.2007 20.4432 58.043 20.8135 58.7266 21.3018C59.4102 21.79 59.931 22.3882 60.2891 23.0962C60.6471 23.7961 60.8262 24.5977 60.8262 25.501C60.8262 26.3799 60.6227 27.1652 60.2158 27.8569C59.8089 28.5487 59.2515 29.1387 58.5435 29.627C57.8354 30.1071 57.0054 30.4774 56.0532 30.7378C55.1092 30.9901 54.096 31.1162 53.0137 31.1162H51.9639V37H46.5684V19.8125ZM53.0381 27.6494C53.9007 27.6494 54.5762 27.4704 55.0645 27.1123C55.5527 26.7542 55.7969 26.2171 55.7969 25.501C55.7969 25.151 55.7236 24.8459 55.5771 24.5854C55.4388 24.325 55.2435 24.1094 54.9912 23.9385C54.7471 23.7594 54.4582 23.6252 54.1245 23.5356C53.7909 23.4461 53.4287 23.4014 53.0381 23.4014H51.9639V27.6006C52.0778 27.6169 52.2243 27.6291 52.4033 27.6372C52.5824 27.6453 52.7939 27.6494 53.0381 27.6494Z" fill="white"/>
<path d="M62.8037 19.8125H68.5654V37H62.8037V19.8125Z" fill="white"/>
<path d="M71.8369 19.8125H76.8418L83.7021 29.0654V19.8125H88.1699V37H83.165L76.2803 28.04V37H71.8369V19.8125Z" fill="white"/>
<path d="M91.4414 19.8125H103.502V23.5967H97.4961V26.7217H102.989V29.8711H97.4961V33.2402H103.502V37H91.4414V19.8125Z" fill="white"/>
</svg>
