<svg width="22" height="21" viewBox="0 0 22 21" fill="none" xmlns="http://www.w3.org/2000/svg">
<path d="M6.47801 9.4497C6.26547 9.4497 6.05771 9.51128 5.88099 9.62665C5.70427 9.74202 5.56653 9.906 5.48519 10.0979C5.40386 10.2897 5.38258 10.5008 5.42404 10.7045C5.46551 10.9082 5.56785 11.0952 5.71814 11.2421C5.86843 11.3889 6.05991 11.4889 6.26837 11.5294C6.47682 11.5699 6.69289 11.5492 6.88925 11.4697C7.08561 11.3902 7.25345 11.2556 7.37153 11.083C7.48961 10.9103 7.55263 10.7073 7.55263 10.4997C7.55263 10.2212 7.43942 9.95413 7.23789 9.75723C7.03636 9.56032 6.76302 9.4497 6.47801 9.4497ZM10.7765 9.4497C10.564 9.4497 10.3562 9.51128 10.1795 9.62665C10.0027 9.74202 9.86501 9.906 9.78368 10.0979C9.70234 10.2897 9.68106 10.5008 9.72252 10.7045C9.76399 10.9082 9.86634 11.0952 10.0166 11.2421C10.1669 11.3889 10.3584 11.4889 10.5668 11.5294C10.7753 11.5699 10.9914 11.5492 11.1877 11.4697C11.3841 11.3902 11.5519 11.2556 11.67 11.083C11.7881 10.9103 11.8511 10.7073 11.8511 10.4997C11.8511 10.2212 11.7379 9.95413 11.5364 9.75723C11.3348 9.56032 11.0615 9.4497 10.7765 9.4497ZM15.075 9.4497C14.8624 9.4497 14.6547 9.51128 14.478 9.62665C14.3012 9.74202 14.1635 9.906 14.0822 10.0979C14.0008 10.2897 13.9795 10.5008 14.021 10.7045C14.0625 10.9082 14.1648 11.0952 14.3151 11.2421C14.4654 11.3889 14.6569 11.4889 14.8653 11.5294C15.0738 11.5699 15.2899 11.5492 15.4862 11.4697C15.6826 11.3902 15.8504 11.2556 15.9685 11.083C16.0866 10.9103 16.1496 10.7073 16.1496 10.4997C16.1496 10.2212 16.0364 9.95413 15.8349 9.75723C15.6333 9.56032 15.36 9.4497 15.075 9.4497ZM10.7765 0.00012207C9.36528 0.00012207 7.96789 0.271701 6.6641 0.799352C5.36031 1.327 4.17566 2.10039 3.17778 3.07536C1.16248 5.04441 0.0302897 7.71501 0.0302897 10.4997C0.0208951 12.9241 0.880092 15.2754 2.45893 17.1459L0.309691 19.2458C0.160579 19.3934 0.0595689 19.5809 0.0194059 19.7846C-0.0207571 19.9883 0.00172681 20.199 0.0840206 20.3902C0.173276 20.5791 0.31797 20.7379 0.499734 20.8463C0.681498 20.9547 0.892136 21.0079 1.10491 20.9992H10.7765C13.6266 20.9992 16.3599 19.893 18.3752 17.924C20.3905 15.9549 21.5227 13.2843 21.5227 10.4997C21.5227 7.71501 20.3905 5.04441 18.3752 3.07536C16.3599 1.10632 13.6266 0.00012207 10.7765 0.00012207ZM10.7765 18.8993H3.69475L4.69414 17.9228C4.79568 17.8256 4.87646 17.7096 4.9318 17.5817C4.98714 17.4537 5.01594 17.3163 5.01653 17.1774C5.01249 16.9004 4.89662 16.6362 4.69414 16.4424C3.28702 15.0691 2.41076 13.2616 2.21466 11.3279C2.01856 9.39411 2.51475 7.45375 3.61869 5.83736C4.72263 4.22098 6.36603 3.02856 8.26889 2.46328C10.1717 1.898 12.2163 1.99483 14.0543 2.73726C15.8923 3.47969 17.41 4.8218 18.3487 6.53492C19.2875 8.24804 19.5893 10.2262 19.2027 12.1323C18.8161 14.0385 17.7651 15.7547 16.2286 16.9886C14.6922 18.2225 12.7654 18.8978 10.7765 18.8993Z" fill="white"/>
</svg>
