<svg width="14" height="14" viewBox="0 0 14 14" fill="none" xmlns="http://www.w3.org/2000/svg">
<path d="M6.41299 2.25745H2.20289C1.88386 2.25745 1.5779 2.38236 1.35232 2.6047C1.12673 2.82704 1 3.12861 1 3.44305V11.7423C1 12.0567 1.12673 12.3583 1.35232 12.5806C1.5779 12.8029 1.88386 12.9279 2.20289 12.9279H10.6231C10.9421 12.9279 11.2481 12.8029 11.4737 12.5806C11.6993 12.3583 11.826 12.0567 11.826 11.7423V7.59265" stroke="white" stroke-linecap="round" stroke-linejoin="round"/>
<path d="M10.9238 1.36843C11.1631 1.13261 11.4876 1.00012 11.826 1.00012C12.1643 1.00012 12.4889 1.13261 12.7281 1.36843C12.9674 1.60426 13.1018 1.92411 13.1018 2.25762C13.1018 2.59113 12.9674 2.91098 12.7281 3.1468L7.01446 8.7783L4.6087 9.37109L5.21014 6.99994L10.9238 1.36843Z" stroke="white" stroke-linecap="round" stroke-linejoin="round"/>
</svg>
