<?xml version="1.0" encoding="UTF-8" standalone="no"?><!-- Generator: Gravit.io --><svg xmlns="http://www.w3.org/2000/svg" xmlns:xlink="http://www.w3.org/1999/xlink" style="isolation:isolate" viewBox="0 0 48 29" width="48pt" height="29pt"><defs><clipPath id="_clipPath_AQWHS4Y80WMjqIP31AlxEeRYqVhK0WUL"><rect width="48" height="29"/></clipPath></defs><g clip-path="url(#_clipPath_AQWHS4Y80WMjqIP31AlxEeRYqVhK0WUL)"><path d=" M 14.924 0.086 C 16.562 -0.007 18.198 0 19.835 0 C 19.847 0 28.134 0 28.134 0 C 29.803 0 31.439 -0.007 33.076 0.086 C 34.564 0.17 36.013 0.35 37.456 0.751 C 40.493 1.595 43.145 3.358 45.063 5.856 C 46.968 8.339 48 11.378 48 14.499 C 48 17.624 46.968 20.661 45.063 23.144 C 43.145 25.642 40.493 27.405 37.456 28.249 C 36.013 28.65 34.564 28.829 33.076 28.914 C 31.439 29.008 29.803 28.999 28.166 28.999 C 28.154 28.999 19.865 29 19.865 29 C 18.198 28.999 16.562 29.008 14.924 28.914 C 13.437 28.829 11.988 28.65 10.545 28.249 C 7.508 27.405 4.856 25.642 2.938 23.144 C 1.032 20.661 0 17.624 0 14.5 C 0 11.378 1.032 8.339 2.938 5.856 C 4.856 3.358 7.508 1.595 10.545 0.751 C 11.988 0.35 13.437 0.17 14.924 0.086 Z " fill-rule="evenodd" fill="rgb(255,22,64)"/><path d=" M 33.5 28 C 40.956 28 47 21.956 47 14.5 C 47 7.044 40.956 1 33.5 1 C 26.044 1 20 7.044 20 14.5 C 20 21.956 26.044 28 33.5 28 Z " fill-rule="evenodd" fill="rgb(255,255,255)"/></g></svg>